<?xml version="1.0" standalone="no"?>
<!DOCTYPE svg PUBLIC "-//W3C//DTD SVG 20010904//EN"
 "http://www.w3.org/TR/2001/REC-SVG-20010904/DTD/svg10.dtd">
<svg version="1.0" xmlns="http://www.w3.org/2000/svg"
 width="100.000000pt" height="100.000000pt" viewBox="0 0 100.000000 100.000000"
 preserveAspectRatio="xMidYMid meet">

<g transform="translate(0.000000,100.000000) scale(0.100000,-0.100000)"
fill="#000000" stroke="none">
<path d="M399 947 c-107 -31 -211 -124 -248 -223 -32 -85 -27 -93 28 -41 56
52 155 106 203 109 53 5 40 -20 -26 -47 -79 -32 -159 -88 -203 -142 -36 -43
-36 -44 -30 -117 15 -171 117 -333 260 -412 69 -38 160 -40 226 -5 47 24 140
107 173 153 l19 27 -63 -29 c-88 -41 -194 -68 -209 -53 -18 18 -4 29 58 42 79
18 191 71 230 110 47 48 58 90 58 226 0 102 -4 129 -23 177 -33 81 -108 160
-189 199 -77 37 -188 47 -264 26z m248 -297 c109 -46 164 -147 110 -198 -38
-36 -95 -39 -183 -12 l-74 24 -74 -24 c-88 -27 -145 -24 -183 12 -66 61 25
183 164 218 60 15 182 5 240 -20z"/>
<path d="M307 593 c-13 -12 -7 -23 17 -34 16 -8 22 -17 19 -30 -12 -43 46 -67
69 -29 7 11 21 20 31 20 12 0 17 6 15 18 -2 11 -25 25 -63 39 -66 24 -78 26
-88 16z"/>
<path d="M605 577 c-38 -14 -61 -28 -63 -39 -2 -12 3 -18 15 -18 10 0 24 -9
31 -20 23 -38 81 -14 69 29 -3 13 3 22 20 30 26 12 27 35 2 38 -8 1 -41 -8
-74 -20z"/>
<path d="M70 346 c-15 -33 -23 -70 -24 -115 -1 -61 1 -66 21 -69 14 -2 35 9
59 31 l38 35 -31 68 c-17 38 -33 76 -36 84 -3 9 -13 -3 -27 -34z"/>
<path d="M151 159 c-31 -29 -32 -32 -17 -47 16 -16 19 -15 46 15 17 19 27 39
24 48 -8 21 -14 19 -53 -16z"/>
</g>
</svg>
