<svg id="レイヤー_1" data-name="レイヤー 1" xmlns="http://www.w3.org/2000/svg" viewBox="0 0 171 114"><defs><style>.cls-1{fill:#231815;}</style></defs><title>logo-f</title><path class="cls-1" d="M67.48,34a.5.5,0,0,1-.77.18L55.3,25.65a.88.88,0,0,0-1,0L35,40.14a.44.44,0,0,0,0,.74L84.13,77.73c.27.21.5.1.5-.24V1c0-.33-.13-.36-.28-.06Z"/><path class="cls-1" d="M135.89,37.87c.33,0,.39-.16.12-.37L90.39,3.29c-.27-.2-.49-.09-.49.25V37.26a.61.61,0,0,0,.62.61Z"/><path class="cls-1" d="M90.52,43.15a.62.62,0,0,0-.62.61V77.48c0,.34.22.45.49.25L136,43.52c.27-.2.21-.37-.13-.37Z"/><polygon class="cls-1" points="0.31 113.67 2.35 97.11 7.92 97.11 9.13 108.37 9.17 108.37 13.31 97.11 18.7 97.11 16.66 113.67 13.29 113.67 14.86 100.89 14.81 100.89 10.06 113.67 6.75 113.67 5.3 100.89 5.25 100.89 3.68 113.67 0.31 113.67"/><path class="cls-1" d="M18.38,113.67,25,97.11h4.56L32,113.67H28.38L27.91,110H23.19l-1.39,3.67ZM26.7,100.3h-.05l-2.46,7.15h3.3Z"/><path class="cls-1" d="M38.13,113.94c-4.29,0-4.78-2.52-4.25-5.39h3.46c-.19,1.58-.29,2.91,1.62,2.91a1.9,1.9,0,0,0,2-1.88c.37-3-6.58-3.16-6-8.09.32-2.59,1.81-4.66,6-4.66,3.37,0,4.86,1.52,4.21,5H41.82c.15-1.24.1-2.5-1.3-2.5a1.87,1.87,0,0,0-2,1.77c-.38,3.14,6.62,2.86,6,8.07-.52,4.29-3.72,4.79-6.36,4.79"/><path class="cls-1" d="M50.7,113.94c-4.29,0-4.79-2.52-4.25-5.39h3.46c-.19,1.58-.29,2.91,1.62,2.91a1.9,1.9,0,0,0,2-1.88c.37-3-6.58-3.16-6-8.09.32-2.59,1.81-4.66,6-4.66,3.37,0,4.86,1.52,4.21,5H54.39c.15-1.24.1-2.5-1.3-2.5a1.87,1.87,0,0,0-2,1.77c-.38,3.14,6.62,2.86,6,8.07-.52,4.29-3.73,4.79-6.36,4.79"/><polygon class="cls-1" points="58.53 113.67 60.57 97.11 64.03 97.11 62 113.67 58.53 113.67"/><polygon class="cls-1" points="65.75 97.11 69.35 97.11 70.44 109.15 70.49 109.15 74.86 97.11 78.28 97.11 71.86 113.67 67.8 113.67 65.75 97.11"/><polygon class="cls-1" points="77.96 113.67 79.99 97.11 89.03 97.11 88.72 99.65 83.14 99.65 82.64 103.74 87.78 103.74 87.47 106.28 82.33 106.28 81.74 111.12 87.49 111.12 87.18 113.67 77.96 113.67"/><path class="cls-1" d="M99.19,101.31c.2-2-.15-3.28-2.4-3.28-1.79,0-3,.61-3.23,2.56-.3,2.46.93,2.53,2.65,3.88s3.89,1.9,3.5,5.11c-.37,3-2.06,4.41-4.95,4.41-3.23,0-4.46-1.75-3.93-5h1.52c-.23,1.84-.33,3.74,2.63,3.74a3,3,0,0,0,3.23-2.94c.27-2.24-1.14-2.89-3.34-4.35-3-2-3-3-2.81-4.61.33-2.87,2.29-4.06,5-4.06,3.44,0,3.91,2.13,3.61,4.52Z"/><path class="cls-1" d="M109.74,97.11l3.13,16.56h-1.54l-.79-4.36h-6.49l-1.85,4.36h-1.46L108,97.11Zm.56,11-1.67-9.36h0l-3.94,9.36Z"/><path class="cls-1" d="M116.94,97.11h4.54c1.38,0,3.63.18,3.16,4-.41,3.33-1.68,4.84-4.52,4.84h-2.8l-.94,7.71h-1.47Zm.54,7.61h2.73c1.53,0,2.61-.73,2.93-3.32.34-2.82-.85-3.05-2.18-3.05h-2.7Z"/><path class="cls-1" d="M127.25,97.11h4.54c1.38,0,3.63.18,3.16,4-.41,3.33-1.67,4.84-4.52,4.84h-2.8l-.94,7.71h-1.47Zm.54,7.61h2.73c1.53,0,2.61-.73,2.93-3.32.34-2.82-.84-3.05-2.17-3.05h-2.71Z"/><path class="cls-1" d="M142.52,96.79c5,0,4.49,4.13,3.94,8.6s-1.1,8.6-6.05,8.6-4.5-4.13-3.95-8.6,1.11-8.6,6.06-8.6m-2,16c3.49,0,3.89-3,4.43-7.36s.86-7.36-2.62-7.36-3.9,3-4.44,7.36-.85,7.36,2.63,7.36"/><path class="cls-1" d="M150.54,105.64l-1,8h-1.46l2-16.56h4.57c3.18,0,3.86,1,3.5,4-.26,2.06-.77,3.44-3.06,3.94v0c2.26.48,2.36.75,1.64,6.67-.08.64-.05,1.28-.08,1.93h-1.4a40.05,40.05,0,0,1,.28-4.13c.06-.71.93-3.9-2.25-3.9Zm.15-1.24h2.39c2.2,0,3.3-.57,3.65-3.35.27-2.27-.57-2.7-2.29-2.7h-3Z"/><path class="cls-1" d="M166.12,96.79c4.95,0,4.49,4.13,3.94,8.6S169,114,164,114s-4.49-4.13-3.95-8.6,1.11-8.6,6.06-8.6m-2,16c3.49,0,3.89-3,4.44-7.36S169.45,98,166,98s-3.9,3-4.44,7.36-.86,7.36,2.63,7.36"/></svg>